<mxfile host="app.diagrams.net" agent="Mozilla/5.0 (Windows NT 10.0; Win64; x64) AppleWebKit/537.36 (KHTML, like Gecko) Chrome/129.0.0.0 Safari/537.36" version="24.7.16">
  <diagram name="Pagina-1" id="i2rJMIPuw6I9RM7pHnH9">
    <mxGraphModel dx="1050" dy="557" grid="1" gridSize="10" guides="1" tooltips="1" connect="1" arrows="1" fold="1" page="1" pageScale="1" pageWidth="827" pageHeight="1169" math="0" shadow="0">
      <root>
        <mxCell id="0" />
        <mxCell id="1" parent="0" />
        <mxCell id="GeHRi6-rbL0ilbcFLZMc-1" value="Vraag geburiken een integer A &amp;amp; B" style="rounded=0;whiteSpace=wrap;html=1;" vertex="1" parent="1">
          <mxGeometry x="270" y="120" width="120" height="60" as="geometry" />
        </mxCell>
        <mxCell id="GeHRi6-rbL0ilbcFLZMc-3" value="" style="endArrow=classic;startArrow=classic;html=1;rounded=0;" edge="1" parent="1">
          <mxGeometry width="50" height="50" relative="1" as="geometry">
            <mxPoint x="329.5" y="260" as="sourcePoint" />
            <mxPoint x="329.5" y="200" as="targetPoint" />
          </mxGeometry>
        </mxCell>
        <mxCell id="GeHRi6-rbL0ilbcFLZMc-4" value="Sla de integer A &amp;amp; B op" style="rounded=0;whiteSpace=wrap;html=1;" vertex="1" parent="1">
          <mxGeometry x="270" y="280" width="120" height="60" as="geometry" />
        </mxCell>
        <mxCell id="GeHRi6-rbL0ilbcFLZMc-5" value="" style="endArrow=classic;startArrow=classic;html=1;rounded=0;" edge="1" parent="1">
          <mxGeometry width="50" height="50" relative="1" as="geometry">
            <mxPoint x="329.5" y="430" as="sourcePoint" />
            <mxPoint x="329.5" y="370" as="targetPoint" />
          </mxGeometry>
        </mxCell>
        <mxCell id="GeHRi6-rbL0ilbcFLZMc-6" value="Wanneer A of B kleiner is dan 0" style="rhombus;whiteSpace=wrap;html=1;" vertex="1" parent="1">
          <mxGeometry x="290" y="450" width="80" height="80" as="geometry" />
        </mxCell>
        <mxCell id="GeHRi6-rbL0ilbcFLZMc-7" value="" style="endArrow=classic;startArrow=classic;html=1;rounded=0;" edge="1" parent="1">
          <mxGeometry width="50" height="50" relative="1" as="geometry">
            <mxPoint x="329.5" y="602" as="sourcePoint" />
            <mxPoint x="329.5" y="540" as="targetPoint" />
          </mxGeometry>
        </mxCell>
        <mxCell id="GeHRi6-rbL0ilbcFLZMc-8" value="" style="endArrow=classic;startArrow=classic;html=1;rounded=0;" edge="1" parent="1">
          <mxGeometry width="50" height="50" relative="1" as="geometry">
            <mxPoint x="200" y="489.5" as="sourcePoint" />
            <mxPoint x="270" y="489.5" as="targetPoint" />
          </mxGeometry>
        </mxCell>
        <mxCell id="GeHRi6-rbL0ilbcFLZMc-9" value="Vraag de gebruiken om opnieuw een waarde in te vullen" style="rounded=0;whiteSpace=wrap;html=1;" vertex="1" parent="1">
          <mxGeometry x="270" y="640" width="120" height="60" as="geometry" />
        </mxCell>
        <mxCell id="GeHRi6-rbL0ilbcFLZMc-10" value="" style="endArrow=classic;startArrow=classic;html=1;rounded=0;" edge="1" parent="1">
          <mxGeometry width="50" height="50" relative="1" as="geometry">
            <mxPoint x="420" y="670" as="sourcePoint" />
            <mxPoint x="414" y="490" as="targetPoint" />
            <Array as="points">
              <mxPoint x="524" y="670" />
              <mxPoint x="524" y="490" />
            </Array>
          </mxGeometry>
        </mxCell>
        <mxCell id="GeHRi6-rbL0ilbcFLZMc-11" value="Geef de oppervlakte van A &amp;amp; B als vierkant" style="rounded=0;whiteSpace=wrap;html=1;" vertex="1" parent="1">
          <mxGeometry x="50" y="460" width="120" height="60" as="geometry" />
        </mxCell>
        <mxCell id="GeHRi6-rbL0ilbcFLZMc-12" value="True" style="text;html=1;align=center;verticalAlign=middle;resizable=0;points=[];autosize=1;strokeColor=none;fillColor=none;" vertex="1" parent="1">
          <mxGeometry x="405" y="438" width="50" height="30" as="geometry" />
        </mxCell>
        <mxCell id="GeHRi6-rbL0ilbcFLZMc-13" value="False" style="text;html=1;align=center;verticalAlign=middle;resizable=0;points=[];autosize=1;strokeColor=none;fillColor=none;" vertex="1" parent="1">
          <mxGeometry x="195" y="438" width="50" height="30" as="geometry" />
        </mxCell>
      </root>
    </mxGraphModel>
  </diagram>
</mxfile>
